<?xml version="1.0" encoding="utf-8"?>
<!-- Generator: Adobe Illustrator 22.1.0, SVG Export Plug-In . SVG Version: 6.00 Build 0)  -->
<svg version="1.1" id="Camada_1" xmlns="http://www.w3.org/2000/svg" xmlns:xlink="http://www.w3.org/1999/xlink" x="0px" y="0px"
	 viewBox="0 0 800 800" style="enable-background:new 0 0 800 800;" xml:space="preserve" width="27" height="32">
<style type="text/css">
	.st0{fill:#563062;}
</style>
<path class="st0" d="M613.3,259.8l-72.9-72.9L489,226.3c-9.3-4.7-18.9-8.7-28.8-11.9l-8.4-64.2L348.7,150l-8.5,64.2
	c-10,3.2-19.8,7.2-29.2,12l-51.3-39.4l-72.9,72.9l39.4,51.3c-4.7,9.3-8.7,18.9-11.9,28.8l-64.2,8.4l-0.1,103.1l64.2,8.5
	c3.2,10,7.2,19.8,12,29.2l-39.4,51.3l72.9,72.9l51.3-39.4c9.3,4.7,18.9,8.7,28.8,11.9l8.4,64.2l103.1,0.1l8.5-64.2
	c10-3.2,19.8-7.2,29.2-12l51.3,39.4l72.9-72.9L573.8,489c4.7-9.3,8.7-18.9,11.9-28.8l64.2-8.4l0.1-103.1l-64.2-8.5
	c-3.2-10-7.2-19.8-12-29.2L613.3,259.8z M497.1,497.1c-52.3,52.2-137,52.2-189.3,0c-52.3-52.3-52.2-137,0-189.2s137-52.2,189.3,0
	C549.4,360.2,549.4,444.9,497.1,497.1z"/>
</svg>
