<?xml version="1.0" encoding="utf-8"?>
<!-- Generator: Adobe Illustrator 22.1.0, SVG Export Plug-In . SVG Version: 6.00 Build 0)  -->
<svg version="1.1" id="Camada_1" xmlns="http://www.w3.org/2000/svg" xmlns:xlink="http://www.w3.org/1999/xlink" x="0px" y="0px"
	 viewBox="0 0 800 800" style="enable-background:new 0 0 800 800;" xml:space="preserve" width="25" height="30">
<style type="text/css">
	.st0{fill:#563062;}
</style>
<path class="st0" d="M539,333.5c0-63.4-42.6-116.9-100.7-133.5c0.9-3.3,1.5-6.6,1.5-10.1c0-22-17.8-39.8-39.8-39.8
	c-22,0-39.8,17.8-39.8,39.8c0,3.5,0.6,6.9,1.5,10.1C303.6,216.6,261,270,261,333.5c0,8.6,1,17,2.5,25.2V650h272.9V358.7
	C538,350.5,539,342.1,539,333.5z M500.1,613.6H299.9v-39.5h39.6v-41.5h-39.6v-49.5h36.7v-41.5h-36.7V385h200.1V613.6z"/>
</svg>
