<?xml version="1.0" encoding="utf-8"?>
<!-- Generator: Adobe Illustrator 23.0.3, SVG Export Plug-In . SVG Version: 6.00 Build 0)  -->
<svg version="1.1" id="Camada_1" xmlns="http://www.w3.org/2000/svg" xmlns:xlink="http://www.w3.org/1999/xlink" x="0px" y="0px"
	 viewBox="0 0 800 800" style="enable-background:new 0 0 800 800;" xml:space="preserve" width="25" height="30">
<style type="text/css">
	.st0{fill:#563062;}
</style>
<g>
	<path class="st0" d="M620.85,177.57c-153.6,0-305.45,0-459.14,0L116,353.86v47.57h47c0,64.11,0,126.12,0,189.14
		c95.75,0,190.33,0,286.22,0c0-63.67,0-126.47,0-189.14c38.02,0,76.02,0,114,0c0,63.56,0,126.32,0,189.24c19.41,0,37.48,0,57.12,0
		c0-63.58-0.23-126.71-0.23-190.67c0,0,38.73,0,47.57,0v-47.57L620.85,177.57z M390.9,526.84c-57.05,0-113.26,0-170.18,0
		c0-41.77,0-83.06,0-125.41c56.2,0,112.67,0,170.18,0C390.9,442.57,390.9,484.13,390.9,526.84z"/>
	<path class="st0" d="M624.4,81.68c-154.55,0-308.16,0-462.21,0c0,22.1,0,42.69,0,62.75c155.01,0,308.56,0,462.21,0
		C624.4,123.11,624.4,102.64,624.4,81.68z"/>
</g>
</svg>
