<?xml version="1.0" encoding="utf-8"?>
<!-- Generator: Adobe Illustrator 23.0.3, SVG Export Plug-In . SVG Version: 6.00 Build 0)  -->
<svg version="1.1" id="Camada_1" xmlns="http://www.w3.org/2000/svg" xmlns:xlink="http://www.w3.org/1999/xlink" x="0px" y="0px"
	 viewBox="0 0 800 682.71" style="enable-background:new 0 0 800 682.71;" xml:space="preserve" width="25" height="30">
<style type="text/css">
	.st0{fill:#563062;}
</style>
<circle class="st0" cx="143.13" cy="423.28" r="123.2"/>
<polygon class="st0" points="357.68,640.51 294.25,671.72 205.08,518.29 292.12,473.68 "/>
<circle class="st0" cx="547.46" cy="230.08" r="87.86"/>
<rect x="122.21" y="260.57" transform="matrix(0.9015 -0.4328 0.4328 0.9015 -151.5155 125.7379)" class="st0" width="156.57" height="270.37"/>
<rect x="523.04" y="-2.07" transform="matrix(0.9015 -0.4328 0.4328 0.9015 -45.3737 259.3519)" class="st0" width="48.14" height="462.86"/>
<polygon class="st0" points="218.42,256.94 432.97,47.2 618.54,433.79 320.01,468.58 "/>
<rect x="652.96" y="137.44" transform="matrix(0.9015 -0.4328 0.4328 0.9015 0.2654 320.4032)" class="st0" width="102.21" height="44.36"/>
<rect x="573.7" y="49.19" transform="matrix(0.3759 -0.9266 0.9266 0.3759 323.7835 623.5106)" class="st0" width="102.21" height="44.36"/>
<rect x="672.24" y="254.48" transform="matrix(0.9266 0.3759 -0.3759 0.9266 157.0672 -251.6402)" class="st0" width="102.21" height="44.36"/>
</svg>
