<svg xmlns="http://www.w3.org/2000/svg" width="25.865" height="26" viewBox="0 0 25.865 26">
  <g id="eventos" transform="translate(-151.3 -150)">
    <rect id="Retângulo_118" data-name="Retângulo 118" width="3.011" height="3.011" transform="translate(162.73 168.314)" fill="#9d9e9f"/>
    <rect id="Retângulo_119" data-name="Retângulo 119" width="3.011" height="3.011" transform="translate(157.259 157.982)" fill="#9d9e9f"/>
    <rect id="Retângulo_120" data-name="Retângulo 120" width="3.011" height="3.011" transform="translate(162.73 163.151)" fill="#9d9e9f"/>
    <rect id="Retângulo_121" data-name="Retângulo 121" width="3.011" height="3.011" transform="translate(157.259 163.151)" fill="#9d9e9f"/>
    <rect id="Retângulo_122" data-name="Retângulo 122" width="3.011" height="3.011" transform="translate(157.259 168.314)" fill="#9d9e9f"/>
    <rect id="Retângulo_123" data-name="Retângulo 123" width="3.011" height="3.011" transform="translate(168.195 157.982)" fill="#9d9e9f"/>
    <rect id="Retângulo_124" data-name="Retângulo 124" width="3.011" height="3.011" transform="translate(168.195 168.314)" fill="#9d9e9f"/>
    <rect id="Retângulo_125" data-name="Retângulo 125" width="3.011" height="3.011" transform="translate(168.195 163.151)" fill="#9d9e9f"/>
    <rect id="Retângulo_126" data-name="Retângulo 126" width="3.011" height="3.011" transform="translate(162.73 157.982)" fill="#9d9e9f"/>
    <path id="Caminho_103" data-name="Caminho 103" d="M171.528,152.127V150h-2.569v2.127h-3.442V150h-2.574v2.127H159.5V150h-2.569v2.127H151.3V176h25.865V152.127Zm2.527,20.764H154.41V155.236h2.527v.79h2.569v-.79h3.442v.79h2.574v-.79h3.442v.79h2.569v-.79h2.527V172.89Z" fill="#9d9e9f"/>
  </g>
</svg>
