<svg xmlns="http://www.w3.org/2000/svg" viewBox="0 0 800 800" width="25" height="30"><circle cx="400" cy="400" r="336" fill="#b3a6af"/><path fill="#9d9e9f" d="M406.9 598.4l-.1.1-13.7-13z"/><path d="M235.9 549.9c1.5-5 2.9-10 4.4-15 5.7-19.3 11.4-38.5 17.1-57.8 2.9-9.9 5.8-19.7 8.7-29.6 1-3.3 2.9-5.8 5.8-7.6.4-.3.9-.6 1.2-1 9.7-9.6 19.4-19.2 29.1-28.9 16.5-16.4 33.1-32.8 49.6-49.2 16.1-16 32.2-31.9 48.3-47.9 3.5-3.5 7-7.2 10.1-10.4 29.5 29.6 58.8 59 88 88.2-3.1 3.2-6.6 6.9-10.2 10.5-7.8 7.7-15.6 15.4-23.3 23.1-16.2 16.1-32.5 32.2-48.7 48.3-15.9 15.7-31.8 31.5-47.7 47.2-1 1-2.1 2-3.1 3-1.5 1.5-2.9 3-3.8 4.9-1.6 3.2-4.4 5.1-7.9 6-5.5 1.5-10.9 3.1-16.4 4.7-21.1 6.2-42.2 12.5-63.4 18.7-7 2.1-14.1 4.1-21.1 6.2-1 .3-2 .5-3.1.8h-2.7c-.2-.1-.4-.2-.6-.2-3.3-.6-6-2.2-8-4.9-1.3-1.7-1.9-3.6-2.4-5.7.1-1 .1-2.2.1-3.4zm51.8-87.5c-.1.3-.2.4-.2.5-5.2 17.5-10.4 35.1-15.6 52.6-.2.6-.1 1 .4 1.5l10.8 10.8c.5.5.9.6 1.6.4 15.8-4.6 31.5-9.1 47.3-13.6 1.9-.5 3.8-1.1 5.8-1.7-2.7-2.7-5.2-5.2-7.7-7.8-.3-.3-.6-.9-.7-1.3-.3-5.4-.6-10.8-.8-16.1-.2-4.9-.5-9.8-.7-14.7 0-.7-.2-1-1-1l-7.8-.6c-7.9-.7-15.8-1.3-23.7-2-.5 0-1.1-.4-1.5-.8-2.1-2-4.1-4.1-6.2-6.2zm276.4-151.6c-.4 2-.8 3.9-1.3 5.8-1.2 4.3-3.4 8.2-6.5 11.4-4.4 4.7-8.9 9.2-13.4 13.8-.1.1-.2.2-.4.3-28.1-28.3-56.3-56.5-84.4-84.8 1.8-1.8 3.5-3.6 5.2-5.3 2.9-2.9 5.7-6 8.7-8.8 4.6-4.3 10.2-6.7 16.5-7.3.3 0 .7-.1 1-.2h4.2c.2.1.5.2.7.2 5.4.5 10.5 2.2 14.8 5.6 2.9 2.2 5.5 4.8 8.1 7.4 12.9 12.8 25.7 25.6 38.5 38.5 3.2 3.3 5.6 7.1 6.9 11.6.6 2.1 1 4.2 1.5 6.3-.1 1.8-.1 3.7-.1 5.5zm-140.3-22.6c6.6-6.4 13.3-12.7 19.8-19l88.5 88.5c-6.7 6.2-13.5 12.4-20.2 18.6l-88.1-88.1z" fill="#563062"/></svg>