<svg version="1.1" id="Camada_1" xmlns="http://www.w3.org/2000/svg" x="0" y="0" viewBox="0 0 345.5 521" xml:space="preserve" width="20" height="31"><style>.st0{fill:#9d9e9f}</style><path class="st0" d="M337.8 66.4c-11.8-17.3-24-35.2-33.7-54-5.6-10.9-12-12.8-21.6-12.4-9.5.4-19.2.3-28.6.2-4.3 0-8.6-.1-13-.1h-33.8c-48.4 0-98.4.1-147.5.4-3.9 0-11.9 1.1-14.5 5-7.4 11.2-14.5 22.9-21.4 34.2C17.4 50.1 10.8 60.8 4 71.2c-5.3 8.2-5.4 14.3-.1 22.5 21.8 33.7 43.8 68.2 64.9 101.6 7.2 11.4 14.4 22.7 21.7 34.1l23.3 36.7c-1.6 3.4-3.1 6.6-4.7 9.6-3.5 7-6.6 13-7.7 19.5-1.2 7.1-3.6 11.6-8.4 16.2-40.3 37.9-49.4 98.3-22 147.1 21.5 38.4 60.9 61 102.2 61 10.5 0 21.2-1.5 31.7-4.5 44.6-12.9 72.8-42.3 83.8-87.4 10.6-43.5-.9-82.7-34.1-116.6-3-3-7-7.1-7.1-10.6-.4-14.3-5.8-24.5-17.1-31.8l1.7-2.8c1.3-2.2 2.5-4.1 3.7-6 8.1-12.8 16.2-25.5 24.3-38.3 26.4-41.6 53.8-84.6 81-126.8 5.7-8.8 5.8-15.2.2-23.4l-3.5-4.9zM197.4 264.2h-25.5c-4.3 0-8.8.3-13.2.6-10.2.8-20.7 1.6-28.2-2.5-7.6-4.2-12.7-13.7-17.7-22.9-2-3.7-4-7.5-6.2-10.9-11.1-17.4-22.2-34.7-33.2-52.1-18-28.3-36.7-57.7-55.2-86.4-3.7-5.7-3.7-9.4-.2-14.7 8.7-12.9 16.9-26 25.7-39.8 3.1-5 6.3-10 9.6-15.1l155.2 243.8c-3.9-.1-7.6 0-11.1 0zm-23.9 14.2c-19.3 0-38.5 5.2-57.9 15.6.6-9.8 6.4-15.8 15.5-15.9 28.6-.3 57.7-.3 86.4 0 8.8.1 13.8 5.4 15.3 16.3-20-10.6-39.8-16-59.3-16zm47.4-22c-.1.1-.2.1-.4.3-.1.1-.2.1-.3.2l-8.4-13.2c-9.1-14.1-18.4-28.8-27.3-43.3-1.5-2.4-1.6-7.5-.3-9.6 31.2-49.5 63.3-99.6 94.3-148.1l13.3-20.8c.1-.1.2-.1.5-.3.1-.1.3-.1.4-.2l7.8 12.3c9.6 15.1 19.6 30.6 29.1 46.1.9 1.5.4 5.6-1 7.8-32.5 51.3-65.8 103.3-97.9 153.6l-9.8 15.2zm14-171.6l-62.1 97.5-62.1-97.5h124.2zm42.6-67.2c-1.8 3-3.4 5.6-5.1 8.1-2.9 4.5-5.6 9.5-8.2 14.4-5.9 11.1-12.1 22.5-21.3 27.7-9 5.1-21.9 4-34.4 3-5.2-.4-10.6-.9-15.6-.9h-30.6c-17 0-34.6-.1-51.9.2-6.9.1-10.8-2.1-14.3-8-6.8-11.3-13.9-22.5-21.5-34.3-2.8-4.3-5.6-8.7-8.5-13.3h213.3c-.7 1.1-1.3 2.1-1.9 3.1zM174.6 292.5c57.7.6 104.3 48.8 104 107.5-.3 57.2-48.2 105.4-104.7 105.4h-.2c-27.8-.1-54-11.3-73.9-31.5-19.8-20.3-30.7-47.1-30.6-75.4.1-28.6 11.5-55.6 32-75.9 20-19.7 46.1-30.4 73.4-30.1z"/><path class="st0" d="M161.4 367.5c5.1-1 12.1-1.9 15.4.7s4.5 9.9 3.8 14.8c-.8 5.2-4.2 10.4-7.7 14.6-7.2 8.6-14.7 17.1-22.9 24.6-7.2 6.6-9.9 13.6-6.9 23.3h61.7c.6-5.6 1.1-10.6 1.7-16.7h-37.3c10-10.8 18.5-19.2 26-28.3 7.1-8.5 11.6-18.4 9.2-30.1-2.4-11.5-10.8-19.4-23.1-21.4-16.6-2.8-30.9.7-42 15.7 4.5 3.6 8.5 6.7 12.2 9.6 3.8-2.7 6.6-6.2 9.9-6.8z"/></svg>