<?xml version="1.0" encoding="utf-8"?>
<!-- Generator: Adobe Illustrator 24.0.1, SVG Export Plug-In . SVG Version: 6.00 Build 0)  -->
<svg version="1.1" id="Layer_1" xmlns="http://www.w3.org/2000/svg" xmlns:xlink="http://www.w3.org/1999/xlink" x="0px" y="0px"
	 viewBox="0 0 18.6 18.6" style="enable-background:new 0 0 18.6 18.6;" xml:space="preserve">
<style type="text/css">
	.st0{fill:none;}
	.st1{fill:#552E62;}
</style>
<g>
	<path class="st0" d="M18.4,18.4V0.2H0.2v18.2H18.4z M18.4,9.3c0,5-4.1,9.1-9.1,9.1c-5,0-9.1-4.1-9.1-9.1v0c0-5,4.1-9.1,9.1-9.1h0
		C14.3,0.2,18.4,4.3,18.4,9.3z"/>
	<path class="st1" d="M18.4,9.3c0-5-4.1-9.1-9.1-9.1h0c-5,0-9.1,4.1-9.1,9.1v0c0,5,4.1,9.1,9.1,9.1C14.3,18.4,18.4,14.3,18.4,9.3z
		 M13.9,10.1l-1.7,1.7L9.3,8.9l-2.9,2.9l-1.7-1.7l4.5-4.5l0.1-0.1L13.9,10.1L13.9,10.1z"/>
</g>
</svg>
