<?xml version="1.0" encoding="utf-8"?>
<!-- Generator: Adobe Illustrator 22.1.0, SVG Export Plug-In . SVG Version: 6.00 Build 0)  -->
<svg version="1.1" id="Camada_1" xmlns="http://www.w3.org/2000/svg" xmlns:xlink="http://www.w3.org/1999/xlink" x="0px" y="0px"
	 viewBox="0 0 800 800" style="enable-background:new 0 0 800 800;" xml:space="preserve" width="25" height="30">
<style type="text/css">
	.st0{fill:#563062;}
</style>
<g>
	<rect x="371.1" y="502.2" class="st0" width="57.9" height="57.9"/>
	<rect x="265.9" y="303.5" class="st0" width="57.9" height="57.9"/>
	<rect x="371.1" y="402.9" class="st0" width="57.9" height="57.9"/>
	<rect x="265.9" y="402.9" class="st0" width="57.9" height="57.9"/>
	<rect x="265.9" y="502.2" class="st0" width="57.9" height="57.9"/>
	<rect x="476.2" y="303.5" class="st0" width="57.9" height="57.9"/>
	<rect x="476.2" y="502.2" class="st0" width="57.9" height="57.9"/>
	<rect x="476.2" y="402.9" class="st0" width="57.9" height="57.9"/>
	<rect x="371.1" y="303.5" class="st0" width="57.9" height="57.9"/>
	<path class="st0" d="M540.3,190.9V150h-49.4v40.9h-66.2V150h-11.8h-25.9h-11.8v40.9h-66.2V150h-49.4v40.9H151.3V650h497.4V190.9
		H540.3z M588.9,590.2H211.1V250.7h48.6v15.2h49.4v-15.2h66.2v15.2h11.8h25.9h11.8v-15.2h66.2v15.2h49.4v-15.2h48.6V590.2z"/>
</g>
</svg>
