<?xml version="1.0" encoding="utf-8"?>
<!-- Generator: Adobe Illustrator 22.1.0, SVG Export Plug-In . SVG Version: 6.00 Build 0)  -->
<svg version="1.1" id="Camada_1" xmlns="http://www.w3.org/2000/svg" xmlns:xlink="http://www.w3.org/1999/xlink" x="0px" y="0px"
	 viewBox="0 0 25 30" style="enable-background:new 0 0 25 30;" xml:space="preserve" width="25" height="30">
<style type="text/css">
	.st0{fill:#563062;}
</style>
<g>
	<path class="st0" d="M14.4,7.4c0,1.2,0,2.4,0,3.7c-1.3,0-2.5,0-3.8,0c0-1.2,0-2.5,0-3.7C11.9,7.4,13.1,7.4,14.4,7.4z"/>
	<path class="st0" d="M20.2,17c-1.2,0-2.4,0-3.7,0c0-1.3,0-2.5,0-3.8c1.2,0,2.5,0,3.7,0C20.2,14.5,20.2,15.8,20.2,17z"/>
	<path class="st0" d="M8.5,7.4c0,1.2,0,2.4,0,3.7c-1.2,0-2.4,0-3.7,0c0-1.2,0-2.5,0-3.7C6,7.4,7.3,7.4,8.5,7.4z"/>
	<path class="st0" d="M20.2,11.1c-1.2,0-2.4,0-3.7,0c0-1.3,0-2.5,0-3.7c1.2,0,2.5,0,3.7,0C20.2,8.7,20.2,9.9,20.2,11.1z"/>
	<path class="st0" d="M20.2,22.8c-1.2,0-2.4,0-3.7,0c0-1.2,0-2.4,0-3.7c1.2,0,2.5,0,3.7,0C20.2,20.3,20.2,21.6,20.2,22.8z"/>
	<path class="st0" d="M12.5,13.2c0.5,0,0.9,0,1.4,0c0.4,0,0.5,0.1,0.5,0.5c0,0.9,0,1.9,0,2.8c0,0.4-0.1,0.5-0.5,0.5
		c-0.9,0-1.9,0-2.8,0c-0.3,0-0.5-0.1-0.5-0.4c0-1,0-1.9,0-2.9c0-0.3,0.1-0.5,0.5-0.4C11.6,13.2,12,13.2,12.5,13.2
		C12.5,13.2,12.5,13.2,12.5,13.2z"/>
	<path class="st0" d="M8.5,17c-1.2,0-2.4,0-3.6,0c0-1.2,0-2.4,0-3.7c1.2,0,2.4,0,3.6,0C8.5,14.5,8.5,15.7,8.5,17z"/>
	<path class="st0" d="M14.3,22.8c-1.2,0-2.4,0-3.7,0c0-1.2,0-2.4,0-3.7c1.2,0,2.4,0,3.7,0C14.3,20.3,14.3,21.5,14.3,22.8z"/>
	<path class="st0" d="M4.9,19.1c1.2,0,2.4,0,3.6,0c0,1.2,0,2.4,0,3.7c-1.2,0-2.4,0-3.6,0C4.9,21.6,4.9,20.4,4.9,19.1z"/>
</g>
</svg>
