<?xml version="1.0" encoding="utf-8"?>
<!-- Generator: Adobe Illustrator 24.0.1, SVG Export Plug-In . SVG Version: 6.00 Build 0)  -->
<svg version="1.1" id="Layer_1" width="24" xmlns="http://www.w3.org/2000/svg" xmlns:xlink="http://www.w3.org/1999/xlink" x="0px" y="0px"
	 viewBox="0 0 18.6 18.6" style="enable-background:new 0 0 18.6 18.6;" xml:space="preserve">
<style type="text/css">
	.st0{fill:none;}
	.st1{fill:#552E62;}
</style>
<g>
	<path class="st0" d="M0.2,0.2v18.2h18.2V0.2H0.2z M9.3,18.4L9.3,18.4c-5,0-9.1-4.1-9.1-9.1v0c0-5,4.1-9.1,9.1-9.1
		c5,0,9.1,4.1,9.1,9.1C18.4,14.3,14.3,18.4,9.3,18.4z"/>
	<path class="st1" d="M9.3,0.2c-5,0-9.1,4.1-9.1,9.1v0c0,5,4.1,9.1,9.1,9.1h0c5,0,9.1-4.1,9.1-9.1C18.4,4.3,14.3,0.2,9.3,0.2z
		 M13.8,8.6l-4.5,4.5l-0.1-0.1L4.7,8.5l1.7-1.7l2.9,2.9l2.9-2.9L13.8,8.6L13.8,8.6z"/>
</g>
</svg>
