<?xml version="1.0" encoding="utf-8"?>
<!-- Generator: Adobe Illustrator 24.0.1, SVG Export Plug-In . SVG Version: 6.00 Build 0)  -->
<svg version="1.1" id="Camada_1" xmlns="http://www.w3.org/2000/svg" xmlns:xlink="http://www.w3.org/1999/xlink" x="0px" y="0px"
	 viewBox="0 0 800 800" style="enable-background:new 0 0 800 800;" xml:space="preserve">
<style type="text/css">
	.st0{fill:#9D9E9F;}
	.st1{fill:#6B6A69;}
	.st2{fill:#606060;}
</style>
<g>
	<g>
		<path class="st0" d="M414.4,733.3C222.9,733.3,67.1,577.5,67.1,386S222.9,38.7,414.4,38.7c191.5,0,347.3,155.8,347.3,347.3
			S605.9,733.3,414.4,733.3z M414.4,47.6C227.8,47.6,76,199.4,76,386s151.8,338.4,338.4,338.4S752.8,572.6,752.8,386
			S601,47.6,414.4,47.6z"/>
	</g>
	<g>
		<g>
			<g>
				<g>
					<g>
						<path class="st0" d="M542.1,575.7H286.7V394.5h255.4V575.7z M294.7,567.7H534V402.5H294.7V567.7z M414.4,352.8
							c-43.1,0-78.2-35.1-78.2-78.2c0-43.1,35.1-78.2,78.2-78.2s78.2,35.1,78.2,78.2C492.6,317.7,457.5,352.8,414.4,352.8z
							 M414.4,204.3c-38.7,0-70.2,31.5-70.2,70.2c0,38.7,31.5,70.2,70.2,70.2c38.7,0,70.2-31.5,70.2-70.2
							C484.6,235.8,453.1,204.3,414.4,204.3z"/>
					</g>
				</g>
			</g>
		</g>
	</g>
	<g>
		<g>
			<polygon class="st1" points="612.7,442.3 574.6,482.5 549.3,509 491.6,569.7 485.9,575.7 480.3,570.5 463.5,554.7 448.7,540.8 
				411.4,505.8 438.7,476.8 484.3,519.6 583.8,414.9 			"/>
		</g>
		<g>
			<polygon class="st1" points="491.6,569.7 485.9,575.8 485.9,575.7 			"/>
		</g>
	</g>
</g>
</svg>
