<?xml version="1.0" encoding="utf-8"?>
<!-- Generator: Adobe Illustrator 19.2.0, SVG Export Plug-In . SVG Version: 6.00 Build 0)  -->
<svg version="1.1" id="Camada_1" xmlns="http://www.w3.org/2000/svg" xmlns:xlink="http://www.w3.org/1999/xlink" x="0px" y="0px"
	 viewBox="0 0 490 537.5" style="enable-background:new 0 0 490 537.5;" xml:space="preserve" width="14" height="14">
<style type="text/css">
	.st0{fill:#4f7872;}
	.st1{fill:none;stroke:#4f7872;stroke-width:15;stroke-miterlimit:10;}
</style>
<polygon class="st0" points="482.2,537.5 384.7,537.4 384.7,355.5 384.7,283 384.7,173.6 482.2,173.6 "/>
<polygon class="st0" points="355.9,537.5 258.4,537.5 258.4,392.4 258.4,334.5 258.4,247.3 355.9,247.3 "/>
<polygon class="st0" points="229.7,537.5 132.1,537.5 132.1,369.6 132.1,302.7 132.1,201.7 229.7,201.7 "/>
<polygon class="st0" points="103.4,537.5 5.9,537.5 5.9,409.1 5.9,358 5.9,280.8 103.4,280.8 "/>
<polyline class="st1" points="5.9,209.1 180.9,79 307.2,173.6 481.2,10.1 "/>
<polyline class="st1" points="417.6,8.1 482.1,8.1 482.2,72.6 "/>
</svg>
