<?xml version="1.0" encoding="utf-8"?>
<!-- Generator: Adobe Illustrator 22.0.1, SVG Export Plug-In . SVG Version: 6.00 Build 0)  -->
<svg version="1.1" id="Camada_1" xmlns="http://www.w3.org/2000/svg" xmlns:xlink="http://www.w3.org/1999/xlink" x="0px" y="0px"
	 viewBox="0 0 800 800" style="enable-background:new 0 0 800 800;" xml:space="preserve" width="15" height="14">
<style type="text/css">
	.st0{fill:#4f7872;}
</style>
<path class="st0" d="M612.2,429.8C612.2,429.8,612.2,429.8,612.2,429.8c0,133.5-108.6,247.6-242,247.6c-133.4,0-242-114.1-242-247.6
	c0-133.4,108.6-247.6,242-247.6V59.7C166.1,59.7,0,225.7,0,429.8C0,633.9,166.1,800,370.2,800c204.1,0,370.2-166.1,370.2-370.2
	c0,0,0,0,0,0H612.2z"/>
<path class="st0" d="M429.8,128.2c133.4,0,242,108.5,242,242H800C800,166,633.9,0,429.8,0c0,0,0,0,0,0L429.8,128.2
	C429.8,128.2,429.8,128.2,429.8,128.2z"/>
</svg>
