<?xml version="1.0" encoding="utf-8"?>
<!-- Generator: Adobe Illustrator 22.0.1, SVG Export Plug-In . SVG Version: 6.00 Build 0)  -->
<svg version="1.1" id="Camada_1" xmlns="http://www.w3.org/2000/svg" xmlns:xlink="http://www.w3.org/1999/xlink" x="0px" y="0px"
	 viewBox="0 0 500 500" style="enable-background:new 0 0 500 500;" xml:space="preserve"  width="29" height="32">
<style type="text/css">
	.st0{fill:#404040;}
</style>
<path class="st0" d="M452,75.6c0,0-170.7-42-291,57.9c-15.9,13.2-28.3,30.4-34.8,50c-7.3,22.1-8,49.4,22.5,65.5
	c74.2,39.3,213.8-13.1,213.8-13.1s-126.8,83.5-253.1,34.9C-4.1,227.2,70.1,139.9,71.4,138.2C99.7,100.6,257.7-25.9,452,75.6z"/>
<path class="st0" d="M454.1,39.5c0,0-231.3,82.9-279.3,283.6c0,0-17.5,87.3,61.1,78.5s144-91.6,144-91.6S292.6,441,174.8,462.8
	C57,484.6,99.3,353.5,100.6,349.3C118.1,292.6,214.1,70.1,454.1,39.5z"/>
</svg>
