<?xml version="1.0" encoding="utf-8"?>
<!-- Generator: Adobe Illustrator 22.0.1, SVG Export Plug-In . SVG Version: 6.00 Build 0)  -->
<svg version="1.1" id="Camada_1" xmlns="http://www.w3.org/2000/svg" xmlns:xlink="http://www.w3.org/1999/xlink" x="0px" y="0px"
	 viewBox="0 0 800 800" style="enable-background:new 0 0 800 800;" xml:space="preserve" width="25" height="30">
<style type="text/css">
	.st0{fill:#B3A6AF;}
	.st1{fill:#9D9E9F;}
	.st2{fill:#563062;}
</style>
<circle class="st0" cx="400" cy="400" r="336"/>
<g>
	<polygon class="st1" points="406.9,598.4 406.8,598.5 393.1,585.5 	"/>
</g>
<g>
	<path class="st2" d="M235.9,549.9c1.5-5,2.9-10,4.4-15c5.7-19.3,11.4-38.5,17.1-57.8c2.9-9.9,5.8-19.7,8.7-29.6
		c1-3.3,2.9-5.8,5.8-7.6c0.4-0.3,0.9-0.6,1.2-1c9.7-9.6,19.4-19.2,29.1-28.9c16.5-16.4,33.1-32.8,49.6-49.2
		c16.1-16,32.2-31.9,48.3-47.9c3.5-3.5,7-7.2,10.1-10.4c29.5,29.6,58.8,59,88,88.2c-3.1,3.2-6.6,6.9-10.2,10.5
		c-7.8,7.7-15.6,15.4-23.3,23.1c-16.2,16.1-32.5,32.2-48.7,48.3c-15.9,15.7-31.8,31.5-47.7,47.2c-1,1-2.1,2-3.1,3
		c-1.5,1.5-2.9,3-3.8,4.9c-1.6,3.2-4.4,5.1-7.9,6c-5.5,1.5-10.9,3.1-16.4,4.7c-21.1,6.2-42.2,12.5-63.4,18.7
		c-7,2.1-14.1,4.1-21.1,6.2c-1,0.3-2,0.5-3.1,0.8c-0.9,0-1.8,0-2.7,0c-0.2-0.1-0.4-0.2-0.6-0.2c-3.3-0.6-6-2.2-8-4.9
		c-1.3-1.7-1.9-3.6-2.4-5.7C235.9,552.3,235.9,551.1,235.9,549.9z M287.7,462.4c-0.1,0.3-0.2,0.4-0.2,0.5
		c-5.2,17.5-10.4,35.1-15.6,52.6c-0.2,0.6-0.1,1,0.4,1.5c3.6,3.6,7.2,7.2,10.8,10.8c0.5,0.5,0.9,0.6,1.6,0.4
		c15.8-4.6,31.5-9.1,47.3-13.6c1.9-0.5,3.8-1.1,5.8-1.7c-2.7-2.7-5.2-5.2-7.7-7.8c-0.3-0.3-0.6-0.9-0.7-1.3
		c-0.3-5.4-0.6-10.8-0.8-16.1c-0.2-4.9-0.5-9.8-0.7-14.7c0-0.7-0.2-1-1-1c-2.6-0.2-5.2-0.4-7.8-0.6c-7.9-0.7-15.8-1.3-23.7-2
		c-0.5,0-1.1-0.4-1.5-0.8C291.8,466.6,289.8,464.5,287.7,462.4z"/>
	<path class="st2" d="M564.1,310.8c-0.4,2-0.8,3.9-1.3,5.8c-1.2,4.3-3.4,8.2-6.5,11.4c-4.4,4.7-8.9,9.2-13.4,13.8
		c-0.1,0.1-0.2,0.2-0.4,0.3c-28.1-28.3-56.3-56.5-84.4-84.8c1.8-1.8,3.5-3.6,5.2-5.3c2.9-2.9,5.7-6,8.7-8.8
		c4.6-4.3,10.2-6.7,16.5-7.3c0.3,0,0.7-0.1,1-0.2c1.4,0,2.8,0,4.2,0c0.2,0.1,0.5,0.2,0.7,0.2c5.4,0.5,10.5,2.2,14.8,5.6
		c2.9,2.2,5.5,4.8,8.1,7.4c12.9,12.8,25.7,25.6,38.5,38.5c3.2,3.3,5.6,7.1,6.9,11.6c0.6,2.1,1,4.2,1.5,6.3
		C564.1,307.1,564.1,309,564.1,310.8z"/>
	<path class="st2" d="M423.8,288.2c6.6-6.4,13.3-12.7,19.8-19c29.5,29.5,59,59,88.5,88.5c-6.7,6.2-13.5,12.4-20.2,18.6
		C482.5,346.9,453.2,317.6,423.8,288.2z"/>
</g>
</svg>
