<?xml version="1.0" encoding="utf-8"?>
<!-- Generator: Adobe Illustrator 22.0.1, SVG Export Plug-In . SVG Version: 6.00 Build 0)  -->
<svg version="1.1" id="Camada_1" xmlns="http://www.w3.org/2000/svg" xmlns:xlink="http://www.w3.org/1999/xlink" x="0px" y="0px"
	 viewBox="0 0 1000 1000" style="enable-background:new 0 0 1000 1000;" xml:space="preserve" width="29" height="32">
<style type="text/css">
	.st0{fill:#404040;}
</style>
<path class="st0" d="M500,57.9C255.8,57.9,57.9,255.8,57.9,500S255.8,942.1,500,942.1S942.1,744.2,942.1,500S744.2,57.9,500,57.9z
	 M484.1,817.7c-114.2-9.9-199-114.1-183.9-228c31,4.7,58.8,5.7,65.5,49.6c10.8,70.8,70.6,114.4,141.6,112.2
	c68.5-2.2,126.5-54.3,135.7-122c9.1-67.2-31.9-130.1-99.7-152.9c-45.1-15.1-45.1-15.1-52.4-69c126.4-2.9,221.1,90.1,217.3,209
	C704.4,736.3,602.2,828,484.1,817.7z M353.8,245.8c64.4-66.4,160.8-82.2,242.1-41.6c64,31.9,128.4,120.5,106.5,204.5
	c-37.6,0.8-56.3-13-64.9-54.5c-15.1-72.7-79.1-112.2-152.6-104.6c-65,6.7-115.3,57.6-122.3,123.7c-7.4,70.5,31.2,133.1,101.8,150
	c39.9,9.5,49,30.6,48.6,64.7c-70.3,15.6-150.9-26.2-191.6-99C277,409.1,289.9,311.6,353.8,245.8z"/>
</svg>
