<?xml version="1.0" encoding="utf-8"?>
<!-- Generator: Adobe Illustrator 23.0.6, SVG Export Plug-In . SVG Version: 6.00 Build 0)  -->
<svg version="1.1" id="Capa_1" xmlns="http://www.w3.org/2000/svg" xmlns:xlink="http://www.w3.org/1999/xlink" x="0px" y="0px"
	 viewBox="0 0 512 512" style="enable-background:new 0 0 512 512;" xml:space="preserve">
<style type="text/css">
	.st0{fill:#CBE6E1;}
	.st1{fill:#4F7872;}
</style>
<circle class="st0" cx="256" cy="256" r="248.4"/>
<g>
	<g>
		<g>
			<path class="st1" d="M73.1,256c3.3,3.6,84.5,96.4,182.9,96.4s179.6-92.8,182.9-96.4l0,0c-3.3-3.6-84.5-96.4-182.9-96.4
				S76.4,252.4,73.1,256L73.1,256z M181,256c0-41.4,33.6-75,75-75s75,33.6,75,75s-33.6,75-75,75S181,297.4,181,256z"/>
		</g>
	</g>
	<g>
		<g>
			<path class="st1" d="M203.3,265c4.3,25.2,26.2,44.5,52.7,44.5c29.5,0,53.6-24,53.6-53.6s-24-53.6-53.6-53.6
				c-8.8,0-16.9,2.3-24.2,6.1c8.1,5.8,13.5,15.3,13.5,26.1C245.3,255.7,224.9,272,203.3,265z"/>
		</g>
	</g>
</g>
</svg>
