<?xml version="1.0" encoding="utf-8"?>
<!-- Generator: Adobe Illustrator 19.2.0, SVG Export Plug-In . SVG Version: 6.00 Build 0)  -->
<svg version="1.1" id="Camada_1" xmlns="http://www.w3.org/2000/svg" xmlns:xlink="http://www.w3.org/1999/xlink" x="0px" y="0px"
	 viewBox="0 0 460.1 342.8" style="enable-background:new 0 0 460.1 342.8;" xml:space="preserve" width="40" height="31">
<style type="text/css">
	.st0{fill:#9D9E9F;}
</style>
<g>
	<path class="st0" d="M432.5,86.6c-27.5-27.1-56-55.2-83.9-82.8c-2.6-2.6-5.2-3.7-8.9-3.7c0,0,0,0-0.1,0C311,0.2,282,0.2,253.8,0.2
		h-22.5V0h-6.1c-8.5,0-17,0-25.5,0c-24.8,0-50.4,0-75.6-0.1c-6-0.1-10.3,1.7-14.7,6C82.9,32.3,55.8,59,29.5,84.8
		c-8.5,8.4-17,16.7-25.5,25.1c-2.5,2.5-4,4.3-4,6.3s1.4,3.7,3.6,5.9l12.7,12.5c32.5,32.1,65,64.2,97.5,96.2
		c20.5,20.2,40.9,40.3,61.4,60.5c15.8,15.6,31.7,31.2,47.5,46.8c3.1,3.1,5.3,4.6,7.4,4.6s4.2-1.5,7.1-4.4L455.6,123
		c3.1-3,4.5-4.8,4.5-6.8s-1.4-3.8-4.5-6.8L432.5,86.6z M348.7,110.2V20.8l90.8,89.4H348.7z M349.7,122L349.7,122
		c22,0.1,44.4,0.1,65.9,0.1h24.2L251.3,307.8c0.2-0.5,0.5-1,0.7-1.5l20-39.4c23.5-46.2,47.7-94,71.5-141
		C345,122.9,346.5,122,349.7,122z M327.6,110.2h-91.4v-90L327.6,110.2z M244.8,12h91.4v90L244.8,12z M331.2,122.5L236.5,309V122.5
		H331.2z M223.8,20.2v89.9h-91.2L223.8,20.2z M20.7,110.1l90.8-89.5v89.5H20.7z M22.7,122.1h27.5c20.3,0,40.5,0,60.8-0.1l0,0
		c2.7,0,3.9,0.7,5,2.9c24.6,48.6,49.3,97.2,73.9,145.8l18.9,37.2L20.5,122.3C21.4,122.2,22.1,122.1,22.7,122.1z M124.1,101.9v-90
		h91.4L124.1,101.9z M222.5,122.3v186.2L128,122.3H222.5z"/>
</g>
</svg>
