<?xml version="1.0" encoding="utf-8"?>
<!-- Generator: Adobe Illustrator 19.2.0, SVG Export Plug-In . SVG Version: 6.00 Build 0)  -->
<svg version="1.1" id="Camada_1" xmlns="http://www.w3.org/2000/svg" xmlns:xlink="http://www.w3.org/1999/xlink" x="0px" y="0px"
	 viewBox="0 0 359 540.1" style="enable-background:new 0 0 359 540.1;" xml:space="preserve" width="20" height="31">
<style type="text/css">
	.st0{fill:#9D9E9F;}
</style>
<g>
	<path class="st0" d="M351.2,69c-12.3-18-25-36.6-35-56.1C310.4,1.5,303.8-0.4,293.7,0c-9.9,0.4-20,0.3-29.7,0.2
		c-4.5,0-9-0.1-13.5-0.1h-35.2C165,0.1,113.1,0.2,61.9,0.5c-4,0-12.3,1.1-15,5.2c-7.7,11.7-15.1,23.8-22.3,35.5
		C18,52,11.2,63.2,4.2,73.9c-5.6,8.5-5.6,14.9-0.1,23.3c22.7,35.2,45.5,71.1,67.5,105.7c7.5,11.8,15,23.6,22.5,35.4l24.3,38.1
		c-1.6,3.6-3.3,6.8-4.9,10c-3.7,7.3-6.8,13.5-8,20.3c-1.2,7.4-3.7,12.1-8.8,16.9C54.8,363,45.4,425.8,73.8,476.5
		c22.4,39.9,63.3,63.4,106.3,63.4c10.9,0,22-1.5,32.9-4.7c46.4-13.4,75.7-43.9,87.1-90.8c11-45.2-0.9-86-35.5-121.2
		c-3.1-3.1-7.3-7.4-7.4-11c-0.4-14.9-6-25.4-17.8-33.1l1.8-2.9c1.4-2.3,2.6-4.3,3.8-6.2c8.4-13.3,16.9-26.5,25.3-39.8
		c27.5-43.3,55.9-88,84.2-131.8c5.9-9.2,6-15.8,0.2-24.3L351.2,69z M205.3,274.6c-9.2,0-17.9,0-26.5,0c-4.4,0-9.2,0.3-13.7,0.7
		c-10.6,0.8-21.6,1.7-29.3-2.6c-7.9-4.3-13.2-14.2-18.4-23.8c-2.1-3.8-4.2-7.8-6.5-11.4c-11.5-18-23-36.1-34.6-54.2
		c-18.8-29.5-38.2-59.9-57.4-89.8c-3.8-5.9-3.9-9.8-0.2-15.3c9-13.4,17.6-27,26.7-41.4c3.3-5.2,6.6-10.4,10-15.7l161.3,253.5
		C212.7,274.6,208.9,274.6,205.3,274.6z M180.4,289.5c-20.1,0-40.1,5.4-60.2,16.3c0.6-10.1,6.7-16.4,16.1-16.5
		c29.8-0.3,60-0.3,89.8,0c9.1,0.1,14.4,5.6,16,16.9C221.2,295,200.7,289.5,180.4,289.5z M229.7,266.5c-0.1,0.1-0.2,0.1-0.4,0.3
		c-0.1,0.1-0.2,0.1-0.3,0.2c-2.9-4.6-5.8-9.1-8.8-13.7c-9.4-14.7-19.2-29.9-28.4-45c-1.5-2.5-1.7-7.8-0.3-10
		c32.5-51.5,65.8-103.6,98-154l13.8-21.6c0.1-0.1,0.2-0.2,0.5-0.3c0.1-0.1,0.3-0.2,0.4-0.3c2.7,4.3,5.4,8.5,8.2,12.8
		c10,15.7,20.4,31.8,30.3,48c1,1.6,0.4,5.8-1,8.1c-33.8,53.3-68.4,107.4-101.8,159.6L229.7,266.5z M244.2,88.2l-64.5,101.4
		L115.1,88.2L244.2,88.2L244.2,88.2z M288.5,18.3c-1.9,3.1-3.5,5.8-5.3,8.4c-3.1,4.7-5.9,9.9-8.6,15c-6.2,11.5-12.5,23.4-22.1,28.8
		c-9.4,5.3-22.8,4.1-35.7,3.1c-5.4-0.4-11-0.9-16.2-0.9c-0.1,0-0.2,0-0.4,0c-10.5,0-21,0-31.5,0c-17.7,0-36-0.1-54,0.2
		c-7.2,0.1-11.2-2.1-14.9-8.3C92.7,52.8,85.3,41.2,77.4,29c-2.9-4.5-5.8-9.1-8.8-13.8h221.8C289.8,16.3,289.1,17.3,288.5,18.3z
		 M181.5,304.1c59.9,0.6,108.4,50.8,108.1,111.8c-0.3,59.5-50.1,109.6-108.8,109.6c-0.1,0-0.2,0-0.2,0
		c-28.9-0.1-56.2-11.7-76.8-32.8c-20.6-21.1-31.9-48.9-31.8-78.4c0.1-29.8,11.9-57.8,33.3-78.9C126.1,314.9,153.2,303.8,181.5,304.1
		z"/>
	<g>
		<path class="st0" d="M195.2,363.6v102h-19.1v-82.4l-22.7,13.7l-8.5-13l33.2-20.3H195.2z"/>
	</g>
</g>
</svg>
