<?xml version="1.0" encoding="utf-8"?>
<!-- Generator: Adobe Illustrator 22.0.1, SVG Export Plug-In . SVG Version: 6.00 Build 0)  -->
<svg version="1.1" id="Camada_1" xmlns="http://www.w3.org/2000/svg" xmlns:xlink="http://www.w3.org/1999/xlink" x="0px" y="0px"
	 viewBox="0 0 800 800" style="enable-background:new 0 0 800 800;" xml:space="preserve" width="35" height="31">
<style type="text/css">
	.st0{fill:#9D9E9F;}
	.st1{fill:#6B6A69;}
</style>
<g>
	<g>
		<path class="st0" d="M584.9,653.9H203.2V383.1h381.7V653.9z M215.2,641.9h357.7V395.1H215.2V641.9z M394,320.7
			c-64.5,0-116.9-52.4-116.9-116.9c0-64.5,52.4-116.9,116.9-116.9S511,139.3,511,203.8C511,268.2,458.5,320.7,394,320.7z M394,98.8
			c-57.8,0-104.9,47.1-104.9,104.9c0,57.9,47.1,104.9,104.9,104.9c57.9,0,104.9-47.1,104.9-104.9C499,145.9,451.9,98.8,394,98.8z"/>
	</g>
	<g>
		<polygon class="st1" points="599.1,707.1 516.1,624.2 433.3,707.2 394.2,668.1 477,585.1 394,502.3 433.2,463.2 516.1,546
			598.9,463 638.1,502.1 555.2,585.1 638.2,667.9 		"/>
	</g>
</g>
</svg>
