<?xml version="1.0" encoding="utf-8"?>
<!-- Generator: Adobe Illustrator 19.2.0, SVG Export Plug-In . SVG Version: 6.00 Build 0)  -->
<svg version="1.1" id="Camada_1" xmlns="http://www.w3.org/2000/svg" xmlns:xlink="http://www.w3.org/1999/xlink" x="0px" y="0px"
	 viewBox="0 0 345.5 521" style="enable-background:new 0 0 345.5 521;" xml:space="preserve" width="20" height="31">
<style type="text/css">
	.st0{fill:#9D9E9F;}
</style>
<g>
	<path class="st0" d="M337.8,66.4c-11.8-17.3-24-35.2-33.7-54c-5.6-10.9-12-12.8-21.6-12.4c-9.5,0.4-19.2,0.3-28.6,0.2
		c-4.3,0-8.6-0.1-13-0.1h-33.8c-48.4,0-98.4,0.1-147.5,0.4c-3.9,0-11.9,1.1-14.5,5c-7.4,11.2-14.5,22.9-21.4,34.2
		C17.4,50.1,10.8,60.8,4,71.2c-5.3,8.2-5.4,14.3-0.1,22.5c21.8,33.7,43.8,68.2,64.9,101.6c7.2,11.4,14.4,22.7,21.7,34.1l23.3,36.7
		c-1.6,3.4-3.1,6.6-4.7,9.6c-3.5,7-6.6,13-7.7,19.5c-1.2,7.1-3.6,11.6-8.4,16.2c-40.3,37.9-49.4,98.3-22,147.1
		c21.5,38.4,60.9,61,102.2,61c10.5,0,21.2-1.5,31.7-4.5c44.6-12.9,72.8-42.3,83.8-87.4c10.6-43.5-0.9-82.7-34.1-116.6
		c-3-3-7-7.1-7.1-10.6c-0.4-14.3-5.8-24.5-17.1-31.8l1.7-2.8c1.3-2.2,2.5-4.1,3.7-6c8.1-12.8,16.2-25.5,24.3-38.3
		c26.4-41.6,53.8-84.6,81-126.8c5.7-8.8,5.8-15.2,0.2-23.4L337.8,66.4z M197.4,264.2c-8.9,0-17.2,0-25.5,0c-4.3,0-8.8,0.3-13.2,0.6
		c-10.2,0.8-20.7,1.6-28.2-2.5c-7.6-4.2-12.7-13.7-17.7-22.9c-2-3.7-4-7.5-6.2-10.9c-11.1-17.4-22.2-34.7-33.2-52.1
		c-18-28.3-36.7-57.7-55.2-86.4c-3.7-5.7-3.7-9.4-0.2-14.7c8.7-12.9,16.9-26,25.7-39.8c3.1-5,6.3-10,9.6-15.1l155.2,243.8
		C204.6,264.1,200.9,264.2,197.4,264.2z M173.5,278.4c-19.3,0-38.5,5.2-57.9,15.6c0.6-9.8,6.4-15.8,15.5-15.9
		c28.6-0.3,57.7-0.3,86.4,0c8.8,0.1,13.8,5.4,15.3,16.3C212.8,283.8,193,278.4,173.5,278.4z M220.9,256.4c-0.1,0.1-0.2,0.1-0.4,0.3
		c-0.1,0.1-0.2,0.1-0.3,0.2c-2.8-4.4-5.6-8.8-8.4-13.2c-9.1-14.1-18.4-28.8-27.3-43.3c-1.5-2.4-1.6-7.5-0.3-9.6
		c31.2-49.5,63.3-99.6,94.3-148.1l13.3-20.8c0.1-0.1,0.2-0.1,0.5-0.3c0.1-0.1,0.3-0.1,0.4-0.2c2.6,4.1,5.2,8.2,7.8,12.3
		c9.6,15.1,19.6,30.6,29.1,46.1c0.9,1.5,0.4,5.6-1,7.8c-32.5,51.3-65.8,103.3-97.9,153.6L220.9,256.4z M234.9,84.8l-62.1,97.5
		l-62.1-97.5L234.9,84.8L234.9,84.8z M277.5,17.6c-1.8,3-3.4,5.6-5.1,8.1c-2.9,4.5-5.6,9.5-8.2,14.4c-5.9,11.1-12.1,22.5-21.3,27.7
		c-9,5.1-21.9,4-34.4,3c-5.2-0.4-10.6-0.9-15.6-0.9c-0.1,0-0.2,0-0.3,0c-10.1,0-20.2,0-30.3,0c-17,0-34.6-0.1-51.9,0.2
		c-6.9,0.1-10.8-2.1-14.3-8c-6.8-11.3-13.9-22.5-21.5-34.3c-2.8-4.3-5.6-8.7-8.5-13.3h213.3C278.7,15.6,278.1,16.6,277.5,17.6z
		 M174.6,292.5c57.7,0.6,104.3,48.8,104,107.5c-0.3,57.2-48.2,105.4-104.7,105.4c-0.1,0-0.2,0-0.2,0c-27.8-0.1-54-11.3-73.9-31.5
		c-19.8-20.3-30.7-47.1-30.6-75.4c0.1-28.6,11.5-55.6,32-75.9C121.2,302.9,147.3,292.2,174.6,292.5z"/>
	<path class="st0" d="M161.4,367.5c5.1-1,12.1-1.9,15.4,0.7s4.5,9.9,3.8,14.8c-0.8,5.2-4.2,10.4-7.7,14.6
		c-7.2,8.6-14.7,17.1-22.9,24.6c-7.2,6.6-9.9,13.6-6.9,23.3c20.2,0,40.6,0,61.7,0c0.6-5.6,1.1-10.6,1.7-16.7c-12.5,0-23.6,0-37.3,0
		c10-10.8,18.5-19.2,26-28.3c7.1-8.5,11.6-18.4,9.2-30.1c-2.4-11.5-10.8-19.4-23.1-21.4c-16.6-2.8-30.9,0.7-42,15.7
		c4.5,3.6,8.5,6.7,12.2,9.6C155.3,371.6,158.1,368.1,161.4,367.5z"/>
</g>
</svg>
