<?xml version="1.0" encoding="utf-8"?>
<!-- Generator: Adobe Illustrator 24.0.1, SVG Export Plug-In . SVG Version: 6.00 Build 0)  -->
<svg version="1.1" id="Camada_1" xmlns="http://www.w3.org/2000/svg" xmlns:xlink="http://www.w3.org/1999/xlink" x="0px" y="0px"
	 viewBox="0 0 800 800" style="enable-background:new 0 0 800 800;" xml:space="preserve">
<style type="text/css">
	.st0{fill:#9D9E9F;}
	.st1{fill:#6B6A69;}
	.st2{fill:#606060;}
</style>
<g>
	<g>
		<g>
			<path class="st0" d="M525.4,594.6H268.9v-182h256.6V594.6z M276.9,586.5h240.4V420.6H276.9V586.5z M397.2,370.6
				c-43.3,0-78.6-35.3-78.6-78.6c0-43.3,35.3-78.6,78.6-78.6s78.6,35.3,78.6,78.6C475.7,335.4,440.5,370.6,397.2,370.6z
				 M397.2,221.5c-38.9,0-70.5,31.6-70.5,70.5c0,38.9,31.6,70.5,70.5,70.5c38.9,0,70.5-31.6,70.5-70.5
				C467.7,253.1,436,221.5,397.2,221.5z"/>
		</g>
	</g>
	<polygon class="st2" points="613.9,433.3 543.5,433.4 543.5,458.7 567.2,458.6 501.2,524.6 453.2,476.5 453,476.7 452.8,476.5 
		376.8,552.5 398.2,573.9 453,519.1 501.1,567.2 501.3,567.1 501.4,567.2 588.6,479.9 588.7,503.7 614,503.6 	"/>
	<g>
		<path class="st0" d="M397.1,752.1c-191.5,0-347.3-155.8-347.3-347.3S205.6,57.6,397.1,57.6c191.5,0,347.3,155.8,347.3,347.3
			S588.5,752.1,397.1,752.1z M397.1,66.4c-186.6,0-338.4,151.8-338.4,338.4s151.8,338.4,338.4,338.4s338.4-151.8,338.4-338.4
			S583.7,66.4,397.1,66.4z"/>
	</g>
</g>
</svg>
