<?xml version="1.0" encoding="utf-8"?>
<!-- Generator: Adobe Illustrator 24.2.0, SVG Export Plug-In . SVG Version: 6.00 Build 0)  -->
<svg version="1.1" id="Camada_1" xmlns="http://www.w3.org/2000/svg" xmlns:xlink="http://www.w3.org/1999/xlink" x="0px" y="0px"
	 viewBox="0 0 800 800" style="enable-background:new 0 0 800 800;" xml:space="preserve">
<style type="text/css">
	.st0{fill:#9D9E9F;}
	.st1{fill:#6B6A69;}
	.st2{fill:#6B6A69;stroke:#6B6A69;stroke-width:9;stroke-miterlimit:10;}
</style>
<g>
	<g>
		<g>
			<path class="st0" d="M525.4,594.6H268.9v-182h256.6L525.4,594.6L525.4,594.6z M276.9,586.5h240.4V420.6H276.9V586.5z
				 M397.2,370.6c-43.3,0-78.6-35.3-78.6-78.6s35.3-78.6,78.6-78.6s78.6,35.3,78.6,78.6C475.7,335.4,440.5,370.6,397.2,370.6z
				 M397.2,221.5c-38.9,0-70.5,31.6-70.5,70.5s31.6,70.5,70.5,70.5s70.5-31.6,70.5-70.5S436,221.5,397.2,221.5z"/>
		</g>
	</g>
	<g>
		<path class="st1" d="M548.2,516.2h19.3v6.8h-30.8v-5.2L555,497h-17.9v-6.8h29.6v5.1L548.2,516.2z"/>
		<path class="st1" d="M594.3,495.8h24.6v7.7h-36.2v-5.8l24-35.9h-23.9V454h35.5l0,5.7L594.3,495.8z"/>
	</g>
	<g>
		<path class="st0" d="M397.1,752.1c-191.5,0-347.3-155.8-347.3-347.3S205.6,57.6,397.1,57.6s347.3,155.8,347.3,347.3
			S588.5,752.1,397.1,752.1z M397.1,66.4c-186.6,0-338.4,151.8-338.4,338.4s151.8,338.4,338.4,338.4s338.4-151.8,338.4-338.4
			S583.7,66.4,397.1,66.4z"/>
	</g>
	<g>
		<g>
			<path class="st2" d="M482.7,460.6c5-6.9,11-13,18-18c-18,43.2,2.3,92.9,45.6,110.9c20.9,8.7,44.4,8.7,65.4,0
				c-25.7,35.6-75.3,43.6-110.9,18C465.1,545.8,457.1,496.2,482.7,460.6z"/>
		</g>
	</g>
</g>
</svg>
