<?xml version="1.0" encoding="utf-8"?>
<!-- Generator: Adobe Illustrator 24.0.1, SVG Export Plug-In . SVG Version: 6.00 Build 0)  -->
<svg version="1.1" id="Camada_1" xmlns="http://www.w3.org/2000/svg" xmlns:xlink="http://www.w3.org/1999/xlink" x="0px" y="0px"
	 viewBox="0 0 800 800" style="enable-background:new 0 0 800 800;" xml:space="preserve">
<style type="text/css">
	.st0{fill:#9D9E9F;}
	.st1{fill:#6B6A69;}
	.st2{fill:#606060;}
</style>
<g>
	<g>
		<g>
			<g>
				<path class="st0" d="M489.8,555.1H280.2V389.4h240.2v24.5c0.2,0,0.4,0,0.5,0c2.6,0,5.1,0.2,7.5,0.5v-33H272.2v181.8h217.6
					C489.8,562.7,489.9,555.3,489.8,555.1z"/>
				<path class="st0" d="M400.3,339.5c43.3,0,78.5-35.2,78.5-78.5c0-43.3-35.2-78.5-78.5-78.5s-78.5,35.2-78.5,78.5
					C321.8,304.3,357,339.5,400.3,339.5z M400.3,190.5c38.8,0,70.4,31.6,70.4,70.5c0,38.8-31.6,70.4-70.4,70.4
					c-38.8,0-70.4-31.6-70.4-70.4C329.9,222.1,361.5,190.5,400.3,190.5z"/>
			</g>
		</g>
		<g>
			<path class="st1" d="M527.2,578.4c-2.1-2.1-4.5-3.7-7.2-4.9c-2.7-1.2-5.7-1.8-8.7-1.8c-3.3,0-6.3,0.6-9.1,1.8
				c-2.8,1.2-5.2,2.9-7.3,5c-2.1,2.1-3.7,4.6-4.8,7.3c-1.2,2.8-1.7,5.8-1.7,8.9c0,3.2,0.6,6.1,1.8,8.9c1.2,2.8,2.8,5.2,4.8,7.3
				c2.1,2.1,4.5,3.7,7.3,4.9c2.8,1.2,5.8,1.8,9.1,1.8c3.1,0,6-0.6,8.7-1.8c2.7-1.2,5.1-2.8,7.2-4.9c2.1-2.1,3.7-4.5,4.9-7.3
				c1.2-2.8,1.8-5.8,1.8-8.9c0-3.2-0.6-6.1-1.8-8.9C530.9,582.9,529.2,580.5,527.2,578.4z"/>
			<path class="st1" d="M574.5,445.4c-3.1-6.8-7.2-12.6-12.5-17.3c-5.3-4.7-11.5-8.2-18.6-10.6c-7.1-2.4-14.7-3.6-22.9-3.5
				c-8.7,0-16.8,1.2-24.2,3.5c-7.4,2.3-13.8,5.8-19.3,10.4c-5.4,4.6-9.7,10.5-12.8,17.4c-3.1,7-4.1,21.9-4.2,31.3l37.6-0.1
				c0,0,0-3.3,0-3.4c0-0.7,0-5.6,0.2-6.6c0.4-9.3,9.2-17,18.4-17c10.3,0,17.9,8.4,18.4,18.4c0,0.1,0,0.1,0,0.2c0,0,0,0,0,0.1
				c0,0,0,0,0,0c0,0.1,0,0.1,0,0.2c0.1,0.5,0.1,1,0.1,1.5c0,0.4,0,0.8,0,1.2v0c0,0.1,0,0.2,0,0.3c0,0,0,0,0,0c0,0.1,0,0.2,0,0.3
				c0,0.2,0,0.4,0,0.5c0,0.1,0,0.1,0,0.2c0,0.1,0,0.2,0,0.4c0,0.1,0,0.2,0,0.3c0,0.1,0,0.2,0,0.3c0,0.2,0,0.4,0,0.6
				c0,0.1,0,0.2,0,0.3c0,0.2,0,0.3-0.1,0.5c0,0.1,0,0.2,0,0.3c0,0.2-0.1,0.3-0.1,0.5c0,0.1,0,0.2-0.1,0.4c0,0.2-0.1,0.3-0.1,0.5
				c0,0.1-0.1,0.2-0.1,0.3c0,0.2-0.1,0.3-0.1,0.5c0,0.1-0.1,0.2-0.1,0.3c0,0.1-0.1,0.3-0.1,0.4c-0.2,1-0.5,2.1-0.9,3.1
				c-2,6.1-9.4,13.4-9.8,13.8c-2.6,2.7-9.9,8.4-9.9,8.4s-6.7,5.6-9.3,7.8c-2.6,2.3-4.7,4.6-6.5,7c-1.8,2.4-3.2,5-4.2,7.8
				c-1.1,2.8-1.9,6-2.4,9.5c-0.5,3.6-0.9,7.6-1.1,12.1c-0.2,4.5-0.2,9.8-0.2,15.8l40.2-0.1c0-6.4,0.3-11.8,1.1-16.2
				c0.7-4.4,2-8.2,3.8-11.6c1.8-3.3,4.2-6.4,7.2-9.3c3-2.8,6.8-5.9,11.3-9.2c8.8-7,15.3-14.3,19.6-22.2c4.3-7.8,6.4-16.4,6.4-25.7
				C579.1,460.1,577.6,452.2,574.5,445.4z"/>
		</g>
	</g>
	<g>
		<path class="st0" d="M400,747.3C208.5,747.3,52.7,591.5,52.7,400S208.5,52.7,400,52.7c191.5,0,347.3,155.8,347.3,347.3
			S591.5,747.3,400,747.3z M400,61.6C213.4,61.6,61.6,213.4,61.6,400S213.4,738.4,400,738.4S738.4,586.6,738.4,400
			S586.6,61.6,400,61.6z"/>
	</g>
</g>
</svg>
