<?xml version="1.0" encoding="utf-8"?>
<!-- Generator: Adobe Illustrator 24.0.1, SVG Export Plug-In . SVG Version: 6.00 Build 0)  -->
<svg version="1.1" id="Capa_1" xmlns="http://www.w3.org/2000/svg" xmlns:xlink="http://www.w3.org/1999/xlink" x="0px" y="0px"
	 viewBox="0 0 28.3 28.3" style="enable-background:new 0 0 28.3 28.3;" xml:space="preserve">
<path d="M23.5,24.7l-1-8.9l0,0h-8.7l-0.3-3.1h3.8v-2h-4l-0.4-3.9c1.1-0.5,1.9-1.7,1.9-3c0-1.8-1.5-3.3-3.3-3.3
	C9.7,0.5,8.2,2,8.2,3.8c0,1.6,1.1,2.9,2.6,3.2L12,17.8l0,0v0h8.7l1,8.9l0,0v0h4.6v-2H23.5z"/>
<path d="M17.2,19.8c-0.3,3.2-3,5.7-6.3,5.7c-3.5,0-6.3-2.8-6.3-6.3c0-3,2.1-5.5,4.9-6.2l-0.3-2.3c-3.9,0.8-6.9,4.3-6.9,8.5
	c0,4.8,3.9,8.6,8.6,8.6c4.5,0,8.3-3.5,8.6-8H17.2z"/>
</svg>
