<?xml version="1.0" encoding="utf-8"?>
<!-- Generator: Adobe Illustrator 24.0.1, SVG Export Plug-In . SVG Version: 6.00 Build 0)  -->
<svg version="1.1" id="Capa_1" xmlns="http://www.w3.org/2000/svg" xmlns:xlink="http://www.w3.org/1999/xlink" x="0px" y="0px"
	 viewBox="0 0 28.3 28.3" style="enable-background:new 0 0 28.3 28.3;" xml:space="preserve">
<path d="M24.4,12.7V10c0-3-2.1-5.4-4.7-5.4S15,7,15,10v12.3c0,2.3-1.5,4.1-3.4,4.1s-3.4-1.9-3.4-4.1V19h4.1V4.5h-2V1.4
	c0-0.4-0.3-0.7-0.7-0.7h0C9.2,0.7,8.9,1,8.9,1.4v3.1H6.2V1.4c0-0.4-0.3-0.7-0.7-0.7h0C5.1,0.7,4.8,1,4.8,1.4v3.1h-2V19h4.1v3.2
	c0,3,2.1,5.4,4.7,5.4s4.7-2.4,4.7-5.4V10c0-2.3,1.5-4.1,3.4-4.1s3.4,1.9,3.4,4.1v2.7h-1.2v4.8h3.6v-4.8H24.4z"/>
<rect x="22.5" y="18.1" width="2.5" height="1.6"/>
</svg>
