<?xml version="1.0" encoding="utf-8"?>
<!-- Generator: Adobe Illustrator 24.0.1, SVG Export Plug-In . SVG Version: 6.00 Build 0)  -->
<svg version="1.1" id="Capa_1" xmlns="http://www.w3.org/2000/svg" xmlns:xlink="http://www.w3.org/1999/xlink" x="0px" y="0px"
	 viewBox="0 0 28.3 28.3" style="enable-background:new 0 0 28.3 28.3;" xml:space="preserve">
<g>
	<rect x="1.8" y="7.3" transform="matrix(0.9589 0.2836 -0.2836 0.9589 3.6099 -0.4679)" width="3.3" height="9.9"/>
	<rect x="24.6" y="7" width="3.3" height="9.9"/>
	<polygon points="4.8,16.6 6.9,9.5 10,9.8 13,13.2 17,9.7 23.4,17 21.8,18.5 19.9,16.3 19.5,16.7 21.4,18.8 19.9,20.2 18,18.1 
		17.6,18.4 19.5,20.6 17.9,22 16,19.8 15.6,20.1 17.5,22.3 16,23.7 7.5,14.1 	"/>
	<polygon points="11.7,10.1 15.6,6.6 23.5,8.7 23.5,15.5 17.1,8.3 13.2,11.8 	"/>
	<rect x="11.1" y="22.2" transform="matrix(0.7494 -0.6621 0.6621 0.7494 -12.228 14.0058)" width="2.6" height="1.9"/>
	<rect x="9.3" y="20.2" transform="matrix(0.7494 -0.6621 0.6621 0.7494 -11.3504 12.3418)" width="2.6" height="1.9"/>
	<rect x="7.6" y="18.2" transform="matrix(0.7494 -0.6621 0.6621 0.7494 -10.4727 10.6778)" width="2.6" height="1.9"/>
	<rect x="5.8" y="16.3" transform="matrix(0.7494 -0.6621 0.6621 0.7494 -9.595 9.0138)" width="2.6" height="1.9"/>
</g>
</svg>
