<?xml version="1.0" encoding="utf-8"?>
<!-- Generator: Adobe Illustrator 24.0.1, SVG Export Plug-In . SVG Version: 6.00 Build 0)  -->
<svg version="1.1" id="Capa_1" xmlns="http://www.w3.org/2000/svg" xmlns:xlink="http://www.w3.org/1999/xlink" x="0px" y="0px"
	 viewBox="0 0 28.3 28.3" style="enable-background:new 0 0 28.3 28.3;" xml:space="preserve">
<g>
	<path d="M22,0.8H7.4c-1.1,0-2.1,0.9-2.1,2.1v22.6c0,1.1,0.9,2.1,2.1,2.1H22c1.1,0,2.1-0.9,2.1-2.1V2.9C24.1,1.8,23.2,0.8,22,0.8z
		 M11.7,12.4V7.1h5.9L15,11.4h2.5l-3.9,5v-3.9H11.7z M6.1,24.2c0-0.7,0.6-1.3,1.3-1.3H22c0.7,0,1.3,0.6,1.3,1.3v1.3
		c0,0.7-0.6,1.3-1.3,1.3H7.4c-0.7,0-1.3-0.6-1.3-1.3V24.2z"/>
	<path d="M21.8,25.3h-4.1c-0.2,0-0.3-0.1-0.3-0.3v-0.4c0-0.2,0.1-0.3,0.3-0.3h4.1c0.2,0,0.3,0.1,0.3,0.3V25
		C22.1,25.2,22,25.3,21.8,25.3z"/>
	<path d="M11.7,25.3H7.6c-0.2,0-0.3-0.1-0.3-0.3v-0.4c0-0.2,0.1-0.3,0.3-0.3h4.1c0.2,0,0.3,0.1,0.3,0.3V25
		C12,25.2,11.9,25.3,11.7,25.3z"/>
	<polygon points="15.8,24.3 15.2,25.3 14.2,25.3 13.6,24.3 	"/>
</g>
</svg>
