<?xml version="1.0" encoding="utf-8"?>
<!-- Generator: Adobe Illustrator 24.3.0, SVG Export Plug-In . SVG Version: 6.00 Build 0)  -->
<svg version="1.1" id="Capa_1" xmlns="http://www.w3.org/2000/svg" xmlns:xlink="http://www.w3.org/1999/xlink" x="0px" y="0px"
	 viewBox="0 0 28.3 28.3" style="enable-background:new 0 0 28.3 28.3;" xml:space="preserve">
<style type="text/css">
	.st0{fill:#54BBAB;}
</style>
<g id="history" transform="translate(0 -34.445)">
	<g id="Caminho_244">
		<path class="st0" d="M27.1,50c-0.4,3-1.9,5.7-4.3,7.6c-2,1.6-4.5,2.4-7,2.4c-0.5,0-1,0-1.4-0.1c-3-0.4-5.7-1.9-7.6-4.3l-0.2-0.2
			l1.7-1.3l0.1,0.2c1.4,1.8,3.5,3.1,5.8,3.5c5.1,0.9,9.9-2.5,10.8-7.6c0.4-2.5-0.1-4.9-1.6-7s-3.6-3.4-6-3.8c-2.4-0.4-4.9,0.2-7,1.6
			c-2,1.4-3.3,3.4-3.8,5.7H10l-4.6,4.6l-4.6-4.6h3.7c0.9-5.5,5.7-9.6,11.3-9.6H16v0c3.5,0.1,6.6,1.7,8.8,4.4
			C26.7,44,27.5,47,27.1,50z"/>
	</g>
</g>
</svg>
