<svg xmlns="http://www.w3.org/2000/svg" width="19.634" height="20.552" viewBox="0 0 19.634 20.552">
  <g id="Grupo_233" data-name="Grupo 233" transform="translate(-11.436)">
    <rect id="Retângulo_96" data-name="Retângulo 96" width="8.391" height="4.497" transform="translate(11.436 3.861)" fill="#5f8580"/>
    <rect id="Retângulo_97" data-name="Retângulo 97" width="8.423" height="4.497" transform="translate(22.647 3.861)" fill="#5f8580"/>
    <rect id="Retângulo_98" data-name="Retângulo 98" width="7.053" height="11.486" transform="translate(12.774 9.066)" fill="#5f8580"/>
    <rect id="Retângulo_99" data-name="Retângulo 99" width="7.072" height="11.486" transform="translate(22.647 9.066)" fill="#5f8580"/>
    <path id="Caminho_83" data-name="Caminho 83" d="M111.589,0a4.3,4.3,0,0,0-3.643,2.631A4.307,4.307,0,0,0,104.3,0a2.581,2.581,0,0,0-2.543,2.613,2.606,2.606,0,0,0,2.543,2.66V3.861a1.209,1.209,0,0,1-1.13-1.248,1.167,1.167,0,0,1,1.124-1.2c1.87.016,2.744,2.542,2.931,3.163V20.552h1.417V4.689c.083-.3.958-3.259,2.957-3.276a1.168,1.168,0,0,1,1.13,1.2,1.209,1.209,0,0,1-1.13,1.248V5.273a2.606,2.606,0,0,0,2.543-2.66A2.583,2.583,0,0,0,111.589,0Z" transform="translate(-86.694)" fill="#5f8580"/>
  </g>
</svg>
