<svg xmlns="http://www.w3.org/2000/svg" width="26.021" height="26.021" viewBox="0 0 26.021 26.021">
  <path id="configuracoes" d="M174.111,155.714l-3.794-3.794-2.675,2.05a10.445,10.445,0,0,0-1.5-.619l-.437-3.341-5.366-.01-.442,3.341a10.14,10.14,0,0,0-1.52.624l-2.67-2.05-3.794,3.794,2.05,2.67a10.443,10.443,0,0,0-.619,1.5l-3.341.437L150,165.68l3.341.442a10.14,10.14,0,0,0,.625,1.52l-2.05,2.67,3.794,3.794,2.67-2.05a10.444,10.444,0,0,0,1.5.619l.437,3.341,5.366.005.442-3.341a10.139,10.139,0,0,0,1.52-.624l2.67,2.05,3.794-3.794-2.05-2.67a10.444,10.444,0,0,0,.619-1.5l3.341-.437.005-5.366-3.341-.442a10.139,10.139,0,0,0-.625-1.52Zm-6.047,12.35a6.964,6.964,0,1,1,0-9.846A6.973,6.973,0,0,1,168.064,168.064Z" transform="translate(-150 -150)" fill="#b3a6af"/>
</svg>
