<?xml version="1.0" encoding="utf-8"?>
<!-- Generator: Adobe Illustrator 24.2.0, SVG Export Plug-In . SVG Version: 6.00 Build 0)  -->
<svg version="1.1" id="Camada_1" xmlns="http://www.w3.org/2000/svg" xmlns:xlink="http://www.w3.org/1999/xlink" x="0px" y="0px"
	 viewBox="0 0 26 26" style="enable-background:new 0 0 26 26;" xml:space="preserve">
<style type="text/css">
	.st0{fill:#4F7872;}
</style>
<path id="configuracoes" class="st0" d="M24.1,5.7l-3.8-3.8L17.6,4c-0.5-0.2-1-0.5-1.5-0.6L15.7,0l-5.4,0L9.9,3.3
	C9.4,3.5,8.9,3.7,8.4,4L5.7,1.9L1.9,5.7L4,8.4c-0.2,0.5-0.5,1-0.6,1.5L0,10.3l0,5.4l3.3,0.4c0.2,0.5,0.4,1,0.6,1.5l-2.1,2.7l3.8,3.8
	l2.7-2.1c0.5,0.2,1,0.5,1.5,0.6l0.4,3.3l5.4,0l0.4-3.3c0.5-0.2,1-0.4,1.5-0.6l2.7,2.1l3.8-3.8l-2.1-2.7c0.2-0.5,0.5-1,0.6-1.5
	l3.3-0.4l0-5.4l-3.3-0.4c-0.2-0.5-0.4-1-0.6-1.5L24.1,5.7z M18.1,18.1c-2.7,2.7-7.1,2.7-9.8,0c-2.7-2.7-2.7-7.1,0-9.8
	c2.7-2.7,7.1-2.7,9.8,0c0,0,0,0,0,0C20.8,10.9,20.8,15.3,18.1,18.1L18.1,18.1z"/>
</svg>
