<svg xmlns="http://www.w3.org/2000/svg" width="24.498" height="24.498" viewBox="0 0 24.498 24.498"><defs><style>.a{fill:#4f7872;}</style></defs><g transform="translate(-14.05 -11.95)"><path class="a" d="M14.058,188.235c.112-.373.216-.746.328-1.119.425-1.44.85-2.872,1.276-4.312.216-.739.433-1.469.649-2.208a.973.973,0,0,1,.433-.567.436.436,0,0,0,.09-.075c.724-.716,1.447-1.432,2.171-2.156,1.231-1.223,2.469-2.447,3.7-3.67,1.2-1.194,2.4-2.38,3.6-3.573.261-.261.522-.537.753-.776q3.3,3.312,6.565,6.579c-.231.239-.492.515-.761.783-.582.574-1.164,1.149-1.738,1.723-1.208,1.2-2.425,2.4-3.633,3.6-1.186,1.171-2.372,2.35-3.558,3.521-.075.075-.157.149-.231.224a1.342,1.342,0,0,0-.284.366.863.863,0,0,1-.589.448c-.41.112-.813.231-1.224.35-1.574.463-3.148.932-4.73,1.395-.522.157-1.052.306-1.574.463-.075.022-.149.037-.231.06h-.2a.1.1,0,0,0-.045-.015.92.92,0,0,1-.6-.366,1.079,1.079,0,0,1-.179-.425C14.058,188.415,14.058,188.325,14.058,188.235Zm3.864-6.527a.339.339,0,0,0-.015.037c-.388,1.306-.776,2.618-1.164,3.924a.1.1,0,0,0,.03.112l.806.806a.1.1,0,0,0,.119.03c1.179-.343,2.35-.679,3.528-1.014.142-.037.284-.082.433-.127-.2-.2-.388-.388-.574-.582a.243.243,0,0,1-.052-.1c-.022-.4-.045-.806-.06-1.2-.015-.366-.037-.731-.052-1.1,0-.052-.015-.075-.075-.075l-.582-.045c-.589-.052-1.179-.1-1.768-.149a.185.185,0,0,1-.112-.06C18.228,182.022,18.079,181.865,17.922,181.708Z" transform="translate(0 -152.847)"/><path class="a" d="M547.168,17.553c-.03.149-.06.291-.1.433a1.981,1.981,0,0,1-.485.85c-.328.35-.664.686-1,1.029a.1.1,0,0,1-.03.022q-3.144-3.167-6.3-6.326c.134-.134.261-.269.388-.4.216-.216.425-.448.649-.656a2.046,2.046,0,0,1,1.231-.545.271.271,0,0,0,.075-.015h.313a.135.135,0,0,0,.052.015,2.051,2.051,0,0,1,1.1.418,6.065,6.065,0,0,1,.6.552q1.444,1.432,2.872,2.872a2.047,2.047,0,0,1,.515.865c.045.157.074.313.112.47C547.168,17.277,547.168,17.418,547.168,17.553Z" transform="translate(-508.627 0)"/><path class="a" d="M458.23,92.517c.492-.477.992-.948,1.477-1.417l6.6,6.6c-.5.463-1.007.925-1.507,1.387Z" transform="translate(-430.155 -76.651)"/></g></svg>