<svg xmlns="http://www.w3.org/2000/svg" width="17.282" height="22.344" viewBox="0 0 17.282 22.344">
  <g id="Grupo_1" data-name="Grupo 1" transform="translate(-155.367 -195.375)">
    <g id="Grupo_219" data-name="Grupo 219" transform="translate(94.398 196)">
      <g id="Grupo_218" data-name="Grupo 218" transform="translate(73.735)">
        <g id="Grupo_217" data-name="Grupo 217">
          <path id="Caminho_101" data-name="Caminho 101" d="M361.948,0V3.712h3.377c.138.012.265.012.392.012C365.667,3.6,362.079.03,361.948,0Z" transform="translate(-361.948)" fill="#5f8580" stroke="rgba(0,0,0,0)" stroke-width="1"/>
        </g>
      </g>
      <path id="Caminho_102" data-name="Caminho 102" d="M73.061,5.078a.634.634,0,0,1-.635-.635V0H61c0,20.812-.031,21.719-.031,21.719L77.5,21.688s0-.875,0-16.609Zm-9.521-1.27h7.617v1.27H63.539ZM75.272,16.546H63.232v-1.27h12.04Zm0-3.809H63.232v-1.27h12.04Zm0-3.809H63.232V7.66h12.04Z" fill="#5f8580"/>
    </g>
  </g>
</svg>
