<?xml version="1.0" encoding="utf-8"?>
<!-- Generator: Adobe Illustrator 24.0.1, SVG Export Plug-In . SVG Version: 6.00 Build 0)  -->
<svg version="1.1" id="Capa_1" xmlns="http://www.w3.org/2000/svg" xmlns:xlink="http://www.w3.org/1999/xlink" x="0px" y="0px"
	 viewBox="0 0 28.3 28.3" style="enable-background:new 0 0 28.3 28.3;" xml:space="preserve">
<g>
	<g>
		<path d="M16.7,11.9L4.3,12c0.4,5.6,5.1,10,10.7,10h1.7c2.8,0,5.6-1.1,7.6-3.1c1.8-1.8,2.9-4.3,3.1-6.9L16.7,11.9z"/>
	</g>
</g>
<g>
	<g>
		<path d="M17.5,0.5l0,9.9l10,0C27.1,5.1,22.8,0.9,17.5,0.5z"/>
	</g>
</g>
<g>
	<g>
		<g>
			<path d="M21.8,27.8c-1.4,0-2.5-1.1-2.5-2.5s1.1-2.5,2.5-2.5s2.5,1.1,2.5,2.5S23.2,27.8,21.8,27.8z M21.8,23.9
				c-0.8,0-1.4,0.6-1.4,1.4s0.6,1.4,1.4,1.4c0.8,0,1.4-0.6,1.4-1.4S22.6,23.9,21.8,23.9z"/>
		</g>
	</g>
</g>
<g>
	<g>
		<g>
			<path d="M10,27.8c-1.4,0-2.5-1.1-2.5-2.5s1.1-2.5,2.5-2.5c0.7,0,1.3,0.3,1.8,0.7c0.5,0.5,0.7,1.1,0.7,1.8
				C12.5,26.7,11.4,27.8,10,27.8z M10,23.9c-0.8,0-1.4,0.6-1.4,1.4s0.6,1.4,1.4,1.4c0.8,0,1.4-0.6,1.4-1.4c0-0.4-0.1-0.7-0.4-1
				C10.8,24.1,10.4,23.9,10,23.9z"/>
		</g>
	</g>
</g>
<polygon points="4.3,4 0.9,4 0.9,5.5 4.3,5.5 4.3,10.5 5.8,10.5 5.8,5.5 5.8,4 "/>
</svg>
